<mxfile host="app.diagrams.net" agent="Mozilla/5.0 (Windows NT 10.0; Win64; x64; rv:136.0) Gecko/20100101 Firefox/136.0" version="26.1.3">
  <diagram name="Page-1" id="iNMzPLc5w_WyvSR_Hv6e">
    <mxGraphModel dx="2449" dy="1517" grid="1" gridSize="10" guides="1" tooltips="1" connect="1" arrows="1" fold="1" page="0" pageScale="1" pageWidth="827" pageHeight="1169" background="none" math="0" shadow="0">
      <root>
        <mxCell id="0" />
        <mxCell id="1" parent="0" />
        <mxCell id="RPZamispr7NFPFmBDFtn-1" value="&lt;br&gt;&lt;div&gt;&lt;br/&gt;&lt;/div&gt;" style="rounded=0;whiteSpace=wrap;html=1;" vertex="1" parent="1">
          <mxGeometry x="-120" y="80" width="420" height="720" as="geometry" />
        </mxCell>
        <mxCell id="RPZamispr7NFPFmBDFtn-3" value="&lt;font style=&quot;font-size: 24px;&quot;&gt;Server Proxmox&lt;/font&gt;" style="text;html=1;align=center;verticalAlign=middle;resizable=0;points=[];autosize=1;strokeColor=none;fillColor=none;" vertex="1" parent="1">
          <mxGeometry x="-10" y="40" width="200" height="40" as="geometry" />
        </mxCell>
        <mxCell id="RPZamispr7NFPFmBDFtn-5" value="&lt;font style=&quot;font-size: 16px;&quot;&gt;eno1&lt;/font&gt;" style="whiteSpace=wrap;html=1;aspect=fixed;" vertex="1" parent="1">
          <mxGeometry x="300" y="110" width="50" height="50" as="geometry" />
        </mxCell>
        <mxCell id="RPZamispr7NFPFmBDFtn-7" value="&lt;font style=&quot;font-size: 16px;&quot;&gt;eno2&lt;/font&gt;" style="whiteSpace=wrap;html=1;aspect=fixed;" vertex="1" parent="1">
          <mxGeometry x="300" y="265" width="50" height="50" as="geometry" />
        </mxCell>
        <mxCell id="RPZamispr7NFPFmBDFtn-8" value="&lt;font style=&quot;font-size: 16px;&quot;&gt;enp1s0f0&lt;/font&gt;:" style="whiteSpace=wrap;html=1;aspect=fixed;" vertex="1" parent="1">
          <mxGeometry x="300" y="440" width="70" height="70" as="geometry" />
        </mxCell>
        <mxCell id="RPZamispr7NFPFmBDFtn-14" value="" style="rounded=1;whiteSpace=wrap;html=1;" vertex="1" parent="1">
          <mxGeometry x="65" y="120" width="120" height="35" as="geometry" />
        </mxCell>
        <mxCell id="RPZamispr7NFPFmBDFtn-15" value="&lt;font style=&quot;font-size: 15px;&quot;&gt;vmbr1&lt;/font&gt;" style="text;html=1;align=center;verticalAlign=middle;resizable=0;points=[];autosize=1;strokeColor=none;fillColor=none;" vertex="1" parent="1">
          <mxGeometry x="90" y="95" width="70" height="30" as="geometry" />
        </mxCell>
        <mxCell id="RPZamispr7NFPFmBDFtn-16" value="" style="whiteSpace=wrap;html=1;aspect=fixed;" vertex="1" parent="1">
          <mxGeometry x="70" y="125" width="20" height="20" as="geometry" />
        </mxCell>
        <mxCell id="RPZamispr7NFPFmBDFtn-18" value="" style="whiteSpace=wrap;html=1;aspect=fixed;" vertex="1" parent="1">
          <mxGeometry x="135" y="125" width="20" height="20" as="geometry" />
        </mxCell>
        <mxCell id="RPZamispr7NFPFmBDFtn-23" value="&lt;font style=&quot;font-size: 18px;&quot;&gt;S-Univ (vlan-140)&lt;/font&gt;" style="text;html=1;align=center;verticalAlign=middle;resizable=0;points=[];autosize=1;strokeColor=none;fillColor=none;" vertex="1" parent="1">
          <mxGeometry x="770" width="160" height="40" as="geometry" />
        </mxCell>
        <mxCell id="RPZamispr7NFPFmBDFtn-24" value="" style="endArrow=none;html=1;rounded=0;entryX=0.027;entryY=0.481;entryDx=0;entryDy=0;entryPerimeter=0;fillColor=#647687;strokeColor=#314354;" edge="1" parent="1" source="RPZamispr7NFPFmBDFtn-5" target="RPZamispr7NFPFmBDFtn-23">
          <mxGeometry width="50" height="50" relative="1" as="geometry">
            <mxPoint x="500" y="140" as="sourcePoint" />
            <mxPoint x="550" y="90" as="targetPoint" />
          </mxGeometry>
        </mxCell>
        <mxCell id="RPZamispr7NFPFmBDFtn-25" value="" style="rounded=1;whiteSpace=wrap;html=1;" vertex="1" parent="1">
          <mxGeometry x="660" y="265" width="180" height="50" as="geometry" />
        </mxCell>
        <mxCell id="RPZamispr7NFPFmBDFtn-26" value="&lt;font style=&quot;font-size: 18px;&quot;&gt;SW-Aix&lt;/font&gt;" style="text;html=1;align=center;verticalAlign=middle;resizable=0;points=[];autosize=1;strokeColor=none;fillColor=none;" vertex="1" parent="1">
          <mxGeometry x="710" y="232.5" width="80" height="40" as="geometry" />
        </mxCell>
        <mxCell id="RPZamispr7NFPFmBDFtn-28" value="&lt;font style=&quot;font-size: 14px;&quot;&gt;vlan-X&lt;/font&gt;" style="whiteSpace=wrap;html=1;aspect=fixed;" vertex="1" parent="1">
          <mxGeometry x="680" y="265" width="40" height="40" as="geometry" />
        </mxCell>
        <mxCell id="RPZamispr7NFPFmBDFtn-29" value="&lt;font style=&quot;font-size: 14px;&quot;&gt;vlan-Y&lt;/font&gt;" style="whiteSpace=wrap;html=1;aspect=fixed;" vertex="1" parent="1">
          <mxGeometry x="777" y="265" width="40" height="40" as="geometry" />
        </mxCell>
        <mxCell id="RPZamispr7NFPFmBDFtn-30" value="" style="endArrow=none;html=1;rounded=0;entryX=1;entryY=0.5;entryDx=0;entryDy=0;fillColor=#fa6800;strokeColor=#C73500;" edge="1" parent="1" target="RPZamispr7NFPFmBDFtn-7">
          <mxGeometry width="50" height="50" relative="1" as="geometry">
            <mxPoint x="660" y="290" as="sourcePoint" />
            <mxPoint x="580" y="354.6153846153843" as="targetPoint" />
          </mxGeometry>
        </mxCell>
        <mxCell id="RPZamispr7NFPFmBDFtn-31" value="&lt;font style=&quot;font-size: 18px;&quot;&gt;trunk 802.1q&lt;/font&gt; (&lt;font style=&quot;font-size: 16px;&quot;&gt;orange&lt;/font&gt;)" style="text;html=1;align=center;verticalAlign=middle;resizable=0;points=[];autosize=1;strokeColor=none;fillColor=none;" vertex="1" parent="1">
          <mxGeometry x="410" y="250" width="180" height="40" as="geometry" />
        </mxCell>
        <mxCell id="RPZamispr7NFPFmBDFtn-32" value="&lt;font style=&quot;font-size: 17px;&quot;&gt;G0/8&lt;/font&gt;" style="text;html=1;align=center;verticalAlign=middle;resizable=0;points=[];autosize=1;strokeColor=none;fillColor=none;" vertex="1" parent="1">
          <mxGeometry x="610" y="290" width="60" height="30" as="geometry" />
        </mxCell>
        <mxCell id="RPZamispr7NFPFmBDFtn-33" value="" style="rounded=1;whiteSpace=wrap;html=1;" vertex="1" parent="1">
          <mxGeometry x="60" y="272.5" width="120" height="35" as="geometry" />
        </mxCell>
        <mxCell id="RPZamispr7NFPFmBDFtn-35" value="&lt;font style=&quot;font-size: 15px;&quot;&gt;vmbr0&lt;/font&gt;" style="text;html=1;align=center;verticalAlign=middle;resizable=0;points=[];autosize=1;strokeColor=none;fillColor=none;" vertex="1" parent="1">
          <mxGeometry x="90" y="245" width="70" height="30" as="geometry" />
        </mxCell>
        <mxCell id="RPZamispr7NFPFmBDFtn-36" value="" style="shape=mxgraph.cisco.computers_and_peripherals.pc;html=1;pointerEvents=1;dashed=0;fillColor=#036897;strokeColor=#ffffff;strokeWidth=2;verticalLabelPosition=bottom;verticalAlign=top;align=center;outlineConnect=0;fontSize=11;" vertex="1" parent="1">
          <mxGeometry x="-120" y="190" width="78" height="75" as="geometry" />
        </mxCell>
        <mxCell id="RPZamispr7NFPFmBDFtn-37" value="" style="shape=mxgraph.cisco.computers_and_peripherals.pc;html=1;pointerEvents=1;dashed=0;fillColor=#036897;strokeColor=#ffffff;strokeWidth=2;verticalLabelPosition=bottom;verticalAlign=top;align=center;outlineConnect=0;fontSize=11;" vertex="1" parent="1">
          <mxGeometry x="-120" y="310" width="78" height="75" as="geometry" />
        </mxCell>
        <mxCell id="RPZamispr7NFPFmBDFtn-39" value="" style="endArrow=none;html=1;rounded=0;" edge="1" parent="1" source="RPZamispr7NFPFmBDFtn-36">
          <mxGeometry width="50" height="50" relative="1" as="geometry">
            <mxPoint x="10" y="350" as="sourcePoint" />
            <mxPoint x="60" y="300" as="targetPoint" />
          </mxGeometry>
        </mxCell>
        <mxCell id="RPZamispr7NFPFmBDFtn-40" value="" style="endArrow=none;html=1;rounded=0;" edge="1" parent="1" source="RPZamispr7NFPFmBDFtn-37">
          <mxGeometry width="50" height="50" relative="1" as="geometry">
            <mxPoint x="10" y="350" as="sourcePoint" />
            <mxPoint x="60" y="300" as="targetPoint" />
          </mxGeometry>
        </mxCell>
        <mxCell id="RPZamispr7NFPFmBDFtn-41" value="&lt;font style=&quot;font-size: 16px;&quot;&gt;A&lt;/font&gt;" style="text;html=1;align=center;verticalAlign=middle;resizable=0;points=[];autosize=1;strokeColor=none;fillColor=none;" vertex="1" parent="1">
          <mxGeometry x="-96" y="155" width="30" height="30" as="geometry" />
        </mxCell>
        <mxCell id="RPZamispr7NFPFmBDFtn-44" value="" style="endArrow=none;html=1;rounded=0;exitX=0.926;exitY=0.555;exitDx=0;exitDy=0;exitPerimeter=0;" edge="1" parent="1" source="RPZamispr7NFPFmBDFtn-14">
          <mxGeometry width="50" height="50" relative="1" as="geometry">
            <mxPoint x="250" y="185" as="sourcePoint" />
            <mxPoint x="300" y="135" as="targetPoint" />
          </mxGeometry>
        </mxCell>
        <mxCell id="RPZamispr7NFPFmBDFtn-45" value="" style="endArrow=none;html=1;rounded=0;" edge="1" parent="1" source="RPZamispr7NFPFmBDFtn-33">
          <mxGeometry width="50" height="50" relative="1" as="geometry">
            <mxPoint x="250" y="340" as="sourcePoint" />
            <mxPoint x="300" y="290" as="targetPoint" />
          </mxGeometry>
        </mxCell>
        <mxCell id="RPZamispr7NFPFmBDFtn-47" value="" style="whiteSpace=wrap;html=1;aspect=fixed;" vertex="1" parent="1">
          <mxGeometry x="70" y="272.5" width="20" height="20" as="geometry" />
        </mxCell>
        <mxCell id="RPZamispr7NFPFmBDFtn-48" value="" style="whiteSpace=wrap;html=1;aspect=fixed;" vertex="1" parent="1">
          <mxGeometry x="135" y="272.5" width="20" height="20" as="geometry" />
        </mxCell>
        <mxCell id="RPZamispr7NFPFmBDFtn-50" value="&lt;font style=&quot;font-size: 16px;&quot;&gt;B&lt;/font&gt;" style="text;html=1;align=center;verticalAlign=middle;resizable=0;points=[];autosize=1;strokeColor=none;fillColor=none;" vertex="1" parent="1">
          <mxGeometry x="-96" y="280" width="30" height="30" as="geometry" />
        </mxCell>
        <mxCell id="RPZamispr7NFPFmBDFtn-51" value="" style="endArrow=none;html=1;rounded=0;entryX=0;entryY=0.5;entryDx=0;entryDy=0;entryPerimeter=0;exitX=1;exitY=0.5;exitDx=0;exitDy=0;" edge="1" parent="1" source="RPZamispr7NFPFmBDFtn-25" target="RPZamispr7NFPFmBDFtn-52">
          <mxGeometry width="50" height="50" relative="1" as="geometry">
            <mxPoint x="840" y="295" as="sourcePoint" />
            <mxPoint x="890" y="245" as="targetPoint" />
          </mxGeometry>
        </mxCell>
        <mxCell id="RPZamispr7NFPFmBDFtn-52" value="" style="shape=mxgraph.cisco.routers.router;html=1;pointerEvents=1;dashed=0;fillColor=#036897;strokeColor=#ffffff;strokeWidth=2;verticalLabelPosition=bottom;verticalAlign=top;align=center;outlineConnect=0;" vertex="1" parent="1">
          <mxGeometry x="1030" y="263.5" width="78" height="53" as="geometry" />
        </mxCell>
        <mxCell id="RPZamispr7NFPFmBDFtn-54" value="&lt;font style=&quot;font-size: 18px;&quot;&gt;R-Aix&lt;/font&gt;" style="text;html=1;align=center;verticalAlign=middle;resizable=0;points=[];autosize=1;strokeColor=none;fillColor=none;" vertex="1" parent="1">
          <mxGeometry x="1100" y="275" width="70" height="40" as="geometry" />
        </mxCell>
        <mxCell id="RPZamispr7NFPFmBDFtn-55" value="&lt;font style=&quot;font-size: 18px;&quot;&gt;trunk 802.1q &lt;/font&gt;" style="text;html=1;align=center;verticalAlign=middle;resizable=0;points=[];autosize=1;strokeColor=none;fillColor=none;" vertex="1" parent="1">
          <mxGeometry x="860" y="252.5" width="120" height="40" as="geometry" />
        </mxCell>
        <mxCell id="RPZamispr7NFPFmBDFtn-56" value="&lt;font style=&quot;font-size: 16px;&quot;&gt;(blanc)&lt;/font&gt;" style="text;html=1;align=center;verticalAlign=middle;resizable=0;points=[];autosize=1;strokeColor=none;fillColor=none;" vertex="1" parent="1">
          <mxGeometry x="960" y="260" width="70" height="30" as="geometry" />
        </mxCell>
        <mxCell id="RPZamispr7NFPFmBDFtn-57" value="" style="endArrow=none;html=1;rounded=0;entryX=0;entryY=0.5;entryDx=0;entryDy=0;entryPerimeter=0;" edge="1" parent="1" target="RPZamispr7NFPFmBDFtn-53">
          <mxGeometry width="50" height="50" relative="1" as="geometry">
            <mxPoint x="840" y="295" as="sourcePoint" />
            <mxPoint x="1030" y="295" as="targetPoint" />
          </mxGeometry>
        </mxCell>
        <mxCell id="RPZamispr7NFPFmBDFtn-53" value="&lt;font style=&quot;font-size: 17px;&quot;&gt;g0/1&lt;/font&gt;" style="text;html=1;align=center;verticalAlign=middle;resizable=0;points=[];autosize=1;strokeColor=none;fillColor=none;" vertex="1" parent="1">
          <mxGeometry x="840" y="297.5" width="60" height="30" as="geometry" />
        </mxCell>
        <mxCell id="RPZamispr7NFPFmBDFtn-59" value="" style="endArrow=none;html=1;rounded=0;exitX=0.453;exitY=0.843;exitDx=0;exitDy=0;exitPerimeter=0;fillColor=#60a917;strokeColor=#2D7600;" edge="1" parent="1" source="RPZamispr7NFPFmBDFtn-23" target="RPZamispr7NFPFmBDFtn-52">
          <mxGeometry width="50" height="50" relative="1" as="geometry">
            <mxPoint x="260" y="460" as="sourcePoint" />
            <mxPoint x="310" y="410" as="targetPoint" />
          </mxGeometry>
        </mxCell>
        <mxCell id="RPZamispr7NFPFmBDFtn-61" value="&lt;font style=&quot;font-size: 17px;&quot;&gt;f0/1&lt;/font&gt;" style="text;html=1;align=center;verticalAlign=middle;resizable=0;points=[];autosize=1;strokeColor=none;fillColor=none;" vertex="1" parent="1">
          <mxGeometry x="1038" y="237.5" width="50" height="30" as="geometry" />
        </mxCell>
        <mxCell id="RPZamispr7NFPFmBDFtn-66" value="&lt;font style=&quot;font-size: 18px;&quot;&gt;S-Univ&lt;/font&gt; &lt;font style=&quot;font-size: 17px;&quot;&gt;(vlan-170)&lt;/font&gt;" style="text;html=1;align=center;verticalAlign=middle;resizable=0;points=[];autosize=1;strokeColor=none;fillColor=none;" vertex="1" parent="1">
          <mxGeometry x="770" y="595" width="160" height="40" as="geometry" />
        </mxCell>
        <mxCell id="RPZamispr7NFPFmBDFtn-69" value="&lt;font style=&quot;font-size: 20px;&quot;&gt;vmbr = virtual switch&lt;/font&gt;" style="text;html=1;align=center;verticalAlign=middle;resizable=0;points=[];autosize=1;strokeColor=none;fillColor=none;" vertex="1" parent="1">
          <mxGeometry x="-135" y="-65" width="210" height="40" as="geometry" />
        </mxCell>
        <mxCell id="RPZamispr7NFPFmBDFtn-71" value="" style="shape=mxgraph.cisco.routers.router;html=1;pointerEvents=1;dashed=0;fillColor=#036897;strokeColor=#ffffff;strokeWidth=2;verticalLabelPosition=bottom;verticalAlign=top;align=center;outlineConnect=0;" vertex="1" parent="1">
          <mxGeometry x="150" y="457" width="78" height="53" as="geometry" />
        </mxCell>
        <mxCell id="RPZamispr7NFPFmBDFtn-74" value="&lt;font style=&quot;font-size: 17px;&quot;&gt;R-Valance&lt;/font&gt; " style="text;html=1;align=center;verticalAlign=middle;resizable=0;points=[];autosize=1;strokeColor=none;fillColor=none;" vertex="1" parent="1">
          <mxGeometry x="139" y="427" width="100" height="30" as="geometry" />
        </mxCell>
        <mxCell id="RPZamispr7NFPFmBDFtn-75" value="" style="endArrow=none;html=1;rounded=0;entryX=0.992;entryY=0.554;entryDx=0;entryDy=0;entryPerimeter=0;" edge="1" parent="1" source="RPZamispr7NFPFmBDFtn-71" target="RPZamispr7NFPFmBDFtn-1">
          <mxGeometry width="50" height="50" relative="1" as="geometry">
            <mxPoint x="370" y="460" as="sourcePoint" />
            <mxPoint x="420" y="410" as="targetPoint" />
          </mxGeometry>
        </mxCell>
        <mxCell id="RPZamispr7NFPFmBDFtn-76" value="&lt;font style=&quot;font-size: 18px;&quot;&gt;???&lt;/font&gt;" style="text;html=1;align=center;verticalAlign=middle;resizable=0;points=[];autosize=1;strokeColor=none;fillColor=none;" vertex="1" parent="1">
          <mxGeometry x="220" y="480" width="50" height="40" as="geometry" />
        </mxCell>
        <mxCell id="RPZamispr7NFPFmBDFtn-78" value="" style="rounded=1;whiteSpace=wrap;html=1;" vertex="1" parent="1">
          <mxGeometry x="-50" y="485" width="120" height="35" as="geometry" />
        </mxCell>
        <mxCell id="RPZamispr7NFPFmBDFtn-79" value="" style="endArrow=none;html=1;rounded=0;exitX=1;exitY=0.5;exitDx=0;exitDy=0;" edge="1" parent="1" source="RPZamispr7NFPFmBDFtn-78" target="RPZamispr7NFPFmBDFtn-71">
          <mxGeometry width="50" height="50" relative="1" as="geometry">
            <mxPoint x="370" y="460" as="sourcePoint" />
            <mxPoint x="530" y="570" as="targetPoint" />
          </mxGeometry>
        </mxCell>
        <mxCell id="RPZamispr7NFPFmBDFtn-80" value="&lt;font style=&quot;font-size: 18px;&quot;&gt;S-Valance&lt;/font&gt;" style="text;html=1;align=center;verticalAlign=middle;resizable=0;points=[];autosize=1;strokeColor=none;fillColor=none;" vertex="1" parent="1">
          <mxGeometry x="-45" y="455" width="110" height="40" as="geometry" />
        </mxCell>
        <mxCell id="RPZamispr7NFPFmBDFtn-81" value="" style="whiteSpace=wrap;html=1;aspect=fixed;" vertex="1" parent="1">
          <mxGeometry x="-40" y="485" width="20" height="20" as="geometry" />
        </mxCell>
        <mxCell id="RPZamispr7NFPFmBDFtn-82" value="" style="whiteSpace=wrap;html=1;aspect=fixed;" vertex="1" parent="1">
          <mxGeometry y="485" width="20" height="20" as="geometry" />
        </mxCell>
        <mxCell id="RPZamispr7NFPFmBDFtn-84" value="" style="whiteSpace=wrap;html=1;aspect=fixed;" vertex="1" parent="1">
          <mxGeometry x="40" y="485" width="20" height="20" as="geometry" />
        </mxCell>
        <mxCell id="RPZamispr7NFPFmBDFtn-85" value="&lt;font style=&quot;font-size: 18px;&quot;&gt;???&lt;/font&gt;" style="text;whiteSpace=wrap;html=1;" vertex="1" parent="1">
          <mxGeometry x="120" y="495" width="60" height="50" as="geometry" />
        </mxCell>
        <mxCell id="RPZamispr7NFPFmBDFtn-86" value="&lt;font style=&quot;font-size: 17px;&quot;&gt;f0/2&lt;/font&gt;" style="text;html=1;align=center;verticalAlign=middle;resizable=0;points=[];autosize=1;strokeColor=none;fillColor=none;" vertex="1" parent="1">
          <mxGeometry x="988" y="292.5" width="50" height="30" as="geometry" />
        </mxCell>
      </root>
    </mxGraphModel>
  </diagram>
</mxfile>
